<?xml version="1.0" encoding="UTF-8" standalone="no"?>
<!-- Created with Inkscape (http://www.inkscape.org/) -->

<svg
   version="1.1"
   id="svg2"
   xml:space="preserve"
   width="2666.6667"
   height="2666.6667"
   viewBox="0 0 2666.6667 2666.6667"
   sodipodi:docname="vecteezy_tooth-brace-icon-orthodontics-symbol_5911521.eps"
   xmlns:inkscape="http://www.inkscape.org/namespaces/inkscape"
   xmlns:sodipodi="http://sodipodi.sourceforge.net/DTD/sodipodi-0.dtd"
   xmlns="http://www.w3.org/2000/svg"
   xmlns:svg="http://www.w3.org/2000/svg"><defs
     id="defs6" /><sodipodi:namedview
     id="namedview4"
     pagecolor="#ffffff"
     bordercolor="#666666"
     borderopacity="1.0"
     inkscape:pageshadow="2"
     inkscape:pageopacity="0.0"
     inkscape:pagecheckerboard="0" /><g
     id="g8"
     inkscape:groupmode="layer"
     inkscape:label="ink_ext_XXXXXX"
     transform="matrix(1.3333333,0,0,-1.3333333,0,2666.6667)"><g
       id="g10"
       transform="scale(0.1)"><path
         d="m 4889.56,12299.4 c 3.22,54.8 3.22,109.6 6.44,164.3 228.78,16.2 454.33,-32.2 634.78,-164.3 54.78,-38.7 103.11,-83.8 148.22,-138.5 67.67,-83.8 135.33,-183.7 164.33,-286.8 32.23,-122.5 25.78,-251.4 16.11,-377 -61.22,12.9 -125.66,25.8 -186.89,41.9 l 9.67,70.9 c 3.22,29 -16.11,54.7 -45.11,61.2 l -496.22,74.1 c -29,3.2 -54.78,-16.1 -61.22,-45.1 l -3.23,-12.9 c -67.66,19.3 -132.11,35.4 -196.55,54.8 0,183.6 3.22,373.7 9.67,557.4 z m 918.33,-1575.7 c -6.45,-109.5 -99.89,-196.5 -209.45,-190.1 -328.66,16.1 -605.77,238.5 -657.33,560.7 -16.11,99.9 -29,199.8 -38.66,299.7 41.88,-12.9 83.77,-22.6 128.88,-35.5 l -9.66,-67.6 c -3.23,-29 16.11,-54.8 45.11,-61.3 l 496.22,-74.1 c 29,-3.2 54.78,16.1 61.22,45.1 l 3.23,12.9 c 67.66,-16.1 141.77,-32.2 212.66,-45.1 -9.67,-148.2 -19.33,-296.4 -32.22,-444.7 z m 441.44,357.7 c 64.45,-12.9 132.12,-25.8 196.56,-38.7 l -6.45,-51.5 c -3.22,-32.2 16.12,-61.2 48.34,-67.7 l 609,-90.2 c 32.22,-3.2 61.22,16.1 67.66,48.3 l 6.45,38.7 c 90.22,-12.9 183.67,-22.6 273.89,-35.4 -12.89,-161.2 -29,-325.5 -80.56,-476.9 -32.22,-106.4 -87,-212.7 -180.44,-280.4 -128.89,-90.2 -296.45,-119.2 -451.11,-106.3 -151.45,9.7 -283.56,125.7 -370.56,244.9 -157.89,241.7 -138.55,544.5 -112.78,815.2 z m 222.34,866.8 c 157.89,183.7 435,199.8 612.22,32.2 157.89,-151.4 325.44,-396.3 360.89,-760.4 -77.33,9.6 -151.45,19.3 -225.56,29 l 6.45,35.4 c 3.22,32.2 -16.11,61.2 -48.34,67.7 l -609,90.2 c -32.22,3.2 -61.22,-16.1 -67.66,-48.3 l -3.23,-25.8 c -74.11,12.9 -145,25.8 -215.88,41.9 19.33,193.3 61.22,386.6 190.11,538.1 z m 1533.77,-1121.3 c 167.56,-16.2 331.89,-32.3 505.89,-45.2 v -35.4 c 0,-35.4 25.78,-64.4 61.22,-64.4 l 705.67,-25.8 c 35.45,0 64.45,25.8 64.45,61.2 v 22.6 c 157.88,-3.3 319,-6.5 480.11,-9.7 0,-9.7 0,-16.1 0,-29 9.66,-357.7 -32.23,-786.2 -447.89,-866.8 -167.56,-32.2 -335.11,-9.7 -505.89,-9.7 -177.22,0 -351.22,-38.6 -531.67,-25.7 -235.22,22.5 -293.22,209.4 -325.44,415.6 -19.34,112.8 -29,228.8 -29,344.8 3.22,90.2 16.11,177.2 22.55,267.5 z m 103.12,589.6 c 235.22,805.6 844.22,789.5 844.22,789.5 0,0 699.22,41.9 844.22,-1143.9 -148.22,0 -296.44,3.2 -441.44,9.6 v 45.2 c 0,35.4 -25.78,64.4 -61.23,64.4 l -705.66,25.8 c -35.45,0 -64.45,-25.8 -64.45,-61.2 v -32.3 c -161.11,12.9 -315.78,25.8 -470.44,41.9 16.11,83.8 29,174 54.78,261 z M 10145,10704.4 c 0,9.7 0,19.3 0,29 167.6,3.2 335.1,3.2 505.9,9.7 v -25.8 c 0,-35.4 29,-61.2 64.4,-58 l 705.7,29 c 35.4,0 61.2,29 58,64.4 l -3.2,41.9 c 157.9,12.9 319,32.3 480.1,48.4 9.7,-90.3 19.3,-183.7 19.3,-273.9 -3.2,-116 -9.6,-232 -25.8,-344.8 -32.2,-203 -87,-393.1 -325.4,-415.7 -177.2,-12.9 -354.4,22.6 -531.7,22.6 -167.5,0 -335.1,-25.8 -502.6,9.6 -409.3,77.4 -451.1,505.9 -444.7,863.6 z m 870,1501.6 c 0,0 602.6,19.3 844.2,-786.3 25.8,-83.7 38.7,-170.7 58,-254.5 -148.2,-16.1 -299.6,-32.2 -444.6,-41.9 v 25.8 c 0,35.4 -29,61.2 -64.5,58 l -705.7,-29 c -35.4,0 -61.2,-29 -58,-64.5 l 3.3,-38.6 c -157.9,-6.5 -312.6,-9.7 -467.3,-12.9 135.4,1185.8 834.6,1143.9 834.6,1143.9 z m 1865.7,-215.9 c 177.2,167.5 454.3,154.6 612.2,-29 125.7,-148.2 170.8,-331.9 193.3,-518.8 -67.6,-12.9 -135.3,-29 -199.8,-41.9 v 12.9 c -3.2,32.2 -32.2,54.8 -64.4,51.6 l -612.2,-77.4 c -32.2,-3.2 -54.8,-32.2 -51.6,-64.4 l 6.5,-45.1 c -80.6,-12.9 -161.1,-22.6 -241.7,-32.3 35.4,351.3 199.8,592.9 357.7,744.4 z m 721.7,-1707.8 c -80.5,-122.4 -212.6,-238.4 -364.1,-248.1 -154.6,-12.9 -325.4,16.1 -451.1,106.3 -90.2,67.7 -148.2,174 -180.4,280.4 -51.6,154.6 -70.9,322.2 -80.6,486.5 93.5,12.9 186.9,29 280.4,41.9 l 3.2,-32.2 c 3.2,-32.2 32.2,-54.8 64.4,-51.6 l 612.2,77.4 c 32.3,3.2 54.8,32.2 51.6,64.4 l -9.7,64.4 c 64.5,12.9 125.7,25.8 190.1,38.7 29,-273.9 51.6,-583.2 -116,-828.1 z m 518.8,1607.9 c 29,103.1 93.5,203 164.4,286.8 45.1,54.7 93.4,103.1 148.2,141.7 180.4,132.2 406,180.5 634.8,164.4 3.2,-54.8 3.2,-109.6 3.2,-164.4 6.4,-177.2 6.4,-357.6 3.2,-534.8 -77.3,-22.6 -154.7,-45.2 -232,-64.5 l -9.7,35.5 c -6.4,29 -35.4,48.3 -64.4,41.8 l -489.8,-109.5 c -29,-6.5 -48.3,-35.5 -41.9,-64.5 l 12.9,-54.7 c -51.5,-12.9 -103.1,-25.8 -151.4,-38.7 -3.3,122.4 -6.5,244.9 22.5,360.9 z m 905.5,-776.6 c -51.6,-322.2 -328.7,-547.7 -654.1,-563.9 -109.6,-6.4 -203,80.6 -212.7,190.2 -12.9,151.4 -22.6,302.8 -32.2,457.5 67.6,16.1 135.3,35.5 199.7,48.3 l 6.5,-29 c 6.4,-29 35.4,-48.3 64.4,-41.8 l 489.8,109.5 c 29,6.5 48.3,35.5 41.9,64.5 l -9.7,45.1 c 48.4,12.9 96.7,25.7 145,41.9 -12.9,-109.6 -22.5,-219.2 -38.6,-322.3 z M 5324.56,10101.9 c 77.33,-25.8 157.89,-41.9 244.88,-51.6 32.23,-3.2 70.89,-6.4 109.56,-6.4 h 87 c 0,0 3.22,0 9.67,-3.3 3.22,0 9.66,-3.2 12.89,-6.4 38.66,-22.6 135.33,-67.7 290,-122.5 241.66,-90.2 608.99,-193.3 1040.77,-212.6 25.78,0 51.56,-3.3 77.34,-3.3 135.33,-6.4 273.89,0 415.66,12.9 0,0 61.22,-16.1 161.11,-41.9 132.12,-32.2 335.11,-77.3 580,-112.7 6.45,0 9.67,0 16.12,-3.3 409.22,-51.5 931.22,-77.3 1424.22,29.1 9.66,3.2 19.33,3.2 29,6.4 54.78,9.7 109.55,25.8 161.11,38.7 54.81,-16.2 109.51,-29 161.11,-38.7 12.9,-3.2 25.8,-3.2 35.4,-6.4 493,-106.4 1008.6,-77.4 1417.8,-22.6 6.5,3.2 9.7,3.2 12.9,3.2 254.6,38.7 460.8,83.8 592.9,116 93.4,22.6 148.2,38.7 148.2,38.7 141.8,-12.9 283.6,-19.4 418.9,-12.9 29,0 58,3.2 87,3.2 428.6,22.6 789.5,125.7 1027.9,215.9 170.8,58 273.9,109.6 302.9,128.9 v 0 c 6.4,3.2 9.7,3.2 9.7,3.2 h 87 c 38.6,0 77.3,3.2 112.7,6.5 90.3,9.6 177.3,29 254.6,54.7 621.9,206.3 905.4,892.6 1034.3,1501.6 367.4,116 741.1,241.7 1114.9,386.7 l -119.2,309.3 c -315.8,-119.2 -625.1,-228.8 -934.5,-328.7 25.8,193.4 35.5,364.1 41.9,489.8 v 9.7 c 9.7,45.1 12.9,90.2 12.9,135.3 v 25.8 c 0,19.3 0,32.2 -3.2,51.5 -41.9,528.5 -563.9,924.8 -1114.9,770.2 -145,-38.7 -277.1,-48.4 -377,-6.5 -534.9,228.8 -1375.9,1311.5 -2861.3,986 -1314.7,-290 -815.2,-454.3 -1462.91,-531.7 -650.89,74.2 -151.45,241.7 -1469.34,525.3 -1488.66,322.2 -2326.44,-766.9 -2858.11,-995.7 -96.66,-41.9 -232,-35.4 -377,6.4 -551,154.7 -1073,-244.8 -1111.66,-773.3 v -3.2 c -3.23,-19.3 -3.23,-32.2 -3.23,-51.6 v -25.7 c 0,-116 6.45,-360.9 48.34,-654.2 -576.78,190.2 -905.45,338.4 -918.34,344.8 L 3156,11986.9 c 16.11,-6.5 415.67,-190.2 1121.33,-412.5 135.34,-602.5 422.11,-1276 1047.23,-1472.5"
         style="fill:#4076c4;fill-opacity:1;fill-rule:nonzero;stroke:none"
         id="path12" /><path
         d="m 15703.3,8977.3 c -58,-364.1 -370.5,-618.7 -741.1,-638 -125.6,-3.2 -232,90.2 -241.6,212.7 -9.7,141.7 -19.4,286.7 -29,428.5 77.3,19.4 151.4,38.7 225.5,58 l 9.7,-41.9 c 6.4,-32.2 38.6,-51.5 70.9,-45.1 l 525.2,116 c 32.2,6.5 51.5,38.7 45.1,70.9 l -16.1,74.1 c 64.4,19.3 125.7,35.5 186.9,54.8 -9.7,-99.9 -19.4,-196.6 -35.5,-290 z m -1607.9,-596.1 c -93.4,-138.6 -241.6,-267.5 -415.6,-280.4 -174,-12.8 -364.1,16.2 -509.1,122.5 -103.1,80.5 -164.4,193.3 -206.3,315.8 -9.6,25.7 -16.1,54.7 -22.5,80.5 87,12.9 170.8,29 254.5,41.9 l 6.5,-41.9 c 6.4,-35.4 41.9,-61.2 77.3,-54.8 l 686.4,125.7 c 35.4,6.5 61.2,41.9 54.7,77.4 l -9.6,51.5 c 77.3,16.1 154.6,32.2 232,51.6 -9.7,-170.8 -48.4,-341.6 -148.3,-489.8 z m -1865.6,-67.7 c -35.5,-232 -99.9,-444.7 -367.4,-467.2 -199.7,-16.1 -402.7,22.5 -602.5,22.5 -190.1,0 -380.2,-25.7 -570.3,9.7 -277.2,54.8 -406,248.1 -464,480.1 193.3,6.5 386.6,12.9 576.7,25.8 l 3.3,-22.6 c 3.2,-38.6 35.4,-67.6 74.1,-64.4 l 770.1,54.8 c 38.6,3.2 67.6,35.4 64.4,74.1 l -3.2,32.2 c 183.7,19.4 364.1,38.7 541.3,61.2 -3.2,-67.6 -9.6,-138.5 -22.5,-206.2 z m -2912.91,-435 c -190.11,-35.4 -380.22,-12.9 -570.33,-12.9 -199.78,0 -402.78,-41.9 -602.56,-25.7 -267.44,19.3 -331.89,235.2 -370.56,463.9 -12.88,67.7 -19.33,138.6 -22.55,206.3 177.22,-22.6 357.67,-41.9 541.33,-61.3 l -3.22,-32.2 c -3.22,-38.6 25.78,-70.9 64.44,-74.1 l 770.12,-51.5 c 38.66,-3.3 70.88,25.7 74.11,64.4 v 22.6 c 190.11,-9.7 383.44,-19.4 576.77,-22.6 C 9722.89,8126.6 9594,7933.3 9316.89,7878.5 Z M 7042,8529.4 c -38.67,-122.4 -99.89,-238.4 -203,-315.8 -141.78,-103.1 -335.11,-135.3 -509.11,-122.4 -174,12.9 -322.22,141.8 -418.89,280.3 -99.89,148.2 -138.56,315.8 -151.44,489.8 77.33,-16.1 154.66,-32.2 232,-48.3 l -9.67,-51.6 c -6.45,-35.4 16.11,-70.9 54.78,-77.3 L 6723,8561.6 c 35.44,-6.4 70.89,16.1 77.33,54.8 l 6.45,41.9 c 83.78,-12.9 167.55,-29 254.55,-41.9 -6.44,-32.2 -12.89,-61.2 -19.33,-87 z m -1759.33,6.4 C 5273,8413.4 5166.67,8320 5041,8323.2 c -370.56,16.1 -686.33,270.6 -744.33,634.8 -16.11,96.6 -25.78,193.3 -35.45,290 61.23,-19.4 122.45,-35.5 186.89,-54.8 L 4432,9119.1 c -6.44,-32.3 12.89,-64.5 45.11,-70.9 l 525.22,-112.8 c 32.23,-6.4 64.45,12.9 70.89,45.1 l 9.67,41.9 c 74.11,-19.3 148.22,-38.7 225.55,-54.8 -6.44,-148.2 -16.11,-290 -25.77,-431.8 z M 17250,9799 l -148.2,335.1 c -12.9,-6.5 -219.1,-96.7 -583.2,-225.6 -6.5,19.4 -12.9,35.5 -19.4,54.8 -103.1,261 -360.9,422.1 -631.5,412.4 -58,-3.2 -103.1,-54.7 -103.1,-112.7 3.2,-199.8 6.4,-402.8 0,-602.6 -93.5,-29 -186.9,-58 -290,-87 l -6.5,32.2 c -6.4,32.3 -38.7,51.6 -70.9,45.1 l -525.2,-116 c -32.2,-6.4 -51.6,-38.6 -45.1,-70.9 l 16.1,-64.4 c -54.8,-16.1 -116,-29 -170.8,-41.9 -9.6,119.2 -22.5,241.7 -12.9,357.7 -77.3,-25.8 -157.9,-41.9 -244.9,-51.6 -32.2,-3.2 -70.8,-6.4 -109.5,-6.4 h -87 c 0,0 -3.2,0 -9.7,-3.2 -3.2,0 -9.6,-3.3 -12.9,-6.5 9.7,-99.9 19.4,-196.5 29,-293.2 3.3,-35.5 6.5,-67.7 9.7,-103.1 -93.4,-22.6 -186.9,-41.9 -286.8,-64.5 l -9.6,45.1 c -6.5,35.5 -41.9,61.3 -77.4,54.8 L 13173.9,9161 c -35.5,-6.5 -61.2,-41.9 -54.8,-77.4 l 9.7,-51.5 c -83.8,-12.9 -167.6,-29 -251.4,-41.9 -6.4,74.1 -12.8,148.2 -16.1,222.3 -3.2,35.5 0,64.5 0,99.9 -25.7,0 -51.5,-3.2 -77.3,-3.2 -135.3,-6.5 -273.9,0 -415.7,12.9 0,0 -61.2,-19.4 -161.1,-41.9 22.6,-125.7 32.2,-251.4 38.7,-377 -183.7,-25.8 -373.8,-45.1 -567.1,-67.7 l -3.2,58 c -3.3,38.7 -35.5,67.7 -74.2,64.5 l -770.1,-54.8 c -38.6,-3.2 -67.6,-35.5 -64.4,-74.1 l 3.2,-64.5 c -196.5,-12.9 -396.3,-19.3 -596.1,-25.8 0,45.2 0,90.3 0,135.4 3.2,103.1 6.4,203 16.1,293.2 0,6.4 -3.2,12.9 -3.2,19.3 -9.7,3.3 -19.3,3.3 -29,6.5 -29,3.2 -58,12.9 -87,19.3 -12.9,3.2 -29,6.5 -41.9,12.9 -9.7,3.2 -16.1,6.4 -25.8,6.4 -9.64,0 -19.31,-3.2 -28.98,-6.4 -9.66,-3.2 -22.55,-6.4 -32.22,-9.7 -35.44,-9.6 -70.89,-19.3 -103.11,-22.5 -9.67,-3.2 -19.33,-3.2 -29,-6.5 0,-6.4 -3.22,-12.9 -3.22,-19.3 9.67,-90.2 12.89,-190.1 16.11,-293.2 0,-45.1 0,-90.2 0,-135.4 -203,3.3 -399.55,12.9 -596.11,22.6 l 3.22,64.4 c 3.22,38.7 -25.78,70.9 -64.44,74.2 l -770.11,51.5 c -38.67,3.2 -70.89,-25.8 -74.12,-64.4 l -3.22,-58 c -193.33,19.3 -380.22,41.9 -567.11,64.4 6.45,125.7 16.11,251.3 38.67,377 -99.89,25.8 -161.11,41.9 -161.11,41.9 -138.56,-12.9 -280.34,-19.3 -415.67,-12.9 -25.78,0 -51.56,3.2 -77.33,3.2 0,-32.2 3.22,-64.4 0,-99.8 -3.23,-74.2 -9.67,-148.3 -16.12,-222.4 -83.77,12.9 -167.55,25.8 -251.33,41.9 l 9.67,51.6 c 6.44,35.4 -16.11,70.9 -54.78,77.3 l -686.33,122.4 c -35.45,6.5 -70.89,-16.1 -77.34,-54.7 l -6.44,-45.2 c -96.67,19.4 -193.33,41.9 -286.78,64.5 3.22,35.4 6.45,70.9 9.67,103.1 9.67,96.7 19.33,193.3 29,293.2 -3.22,3.3 -9.67,6.5 -12.89,6.5 -6.44,3.2 -9.67,3.2 -9.67,3.2 h -87 c -38.66,0 -77.33,3.2 -109.55,6.4 -87,9.7 -167.56,25.8 -244.89,51.6 9.67,-119.2 0,-238.5 -9.67,-357.7 -58,12.9 -116,29 -174,41.9 l 12.89,64.5 c 6.45,32.2 -12.89,64.4 -45.11,70.8 l -525.22,112.8 c -32.22,6.5 -64.45,-12.9 -70.89,-45.1 l -6.45,-32.2 c -99.88,29 -196.55,58 -290,87 -6.44,199.8 -6.44,402.8 -3.22,602.6 0,58 -45.11,112.7 -103.11,112.7 -270.67,9.7 -528.44,-151.4 -631.55,-412.4 -6.45,-19.3 -12.89,-35.5 -19.34,-54.8 -364.11,128.9 -573.55,219.1 -583.22,225.6 L 2750,9776.4 c 12.89,-6.4 228.78,-99.9 612.22,-235.2 -199.78,-647.7 -241.66,-1240.6 -48.33,-1691.7 3.22,-6.4 6.44,-12.9 9.67,-19.3 1662.66,-2883.9 5732.33,-2355.5 6689.34,-2187.9 940.9,-161.1 5010.5,-676.7 6666.8,2210.4 3.2,6.5 6.4,12.9 9.6,19.4 193.4,451.1 148.3,1044 -54.7,1691.6 386.6,135.4 602.5,232 615.4,235.3"
         style="fill:#37404e;fill-opacity:1;fill-rule:nonzero;stroke:none"
         id="path14" /></g></g></svg>
